<svg width="57" height="4" viewBox="0 0 57 4" fill="none" xmlns="http://www.w3.org/2000/svg">
<path d="M2.42188 2.09766C2.38672 2.39844 2.27539 2.63086 2.08789 2.79492C1.90169 2.95768 1.65365 3.03906 1.34375 3.03906C1.00781 3.03906 0.738281 2.91862 0.535156 2.67773C0.333333 2.43685 0.232422 2.11458 0.232422 1.71094V1.4375C0.232422 1.17318 0.279297 0.940755 0.373047 0.740234C0.468099 0.539714 0.602214 0.386068 0.775391 0.279297C0.948568 0.171224 1.14909 0.117188 1.37695 0.117188C1.67904 0.117188 1.92122 0.201823 2.10352 0.371094C2.28581 0.539062 2.39193 0.772135 2.42188 1.07031H2.04492C2.01237 0.84375 1.94141 0.679688 1.83203 0.578125C1.72396 0.476562 1.57227 0.425781 1.37695 0.425781C1.13737 0.425781 0.949219 0.514323 0.8125 0.691406C0.677083 0.86849 0.609375 1.12044 0.609375 1.44727V1.72266C0.609375 2.03125 0.673828 2.27669 0.802734 2.45898C0.931641 2.64128 1.11198 2.73242 1.34375 2.73242C1.55208 2.73242 1.71159 2.68555 1.82227 2.5918C1.93424 2.49674 2.00846 2.33203 2.04492 2.09766H2.42188ZM2.7832 1.92383C2.7832 1.7168 2.82357 1.5306 2.9043 1.36523C2.98633 1.19987 3.09961 1.07227 3.24414 0.982422C3.38997 0.892578 3.55599 0.847656 3.74219 0.847656C4.02995 0.847656 4.26237 0.947266 4.43945 1.14648C4.61784 1.3457 4.70703 1.61068 4.70703 1.94141V1.9668C4.70703 2.17253 4.66732 2.35742 4.58789 2.52148C4.50977 2.68424 4.39714 2.8112 4.25 2.90234C4.10417 2.99349 3.9362 3.03906 3.74609 3.03906C3.45964 3.03906 3.22721 2.93945 3.04883 2.74023C2.87174 2.54102 2.7832 2.27734 2.7832 1.94922V1.92383ZM3.14648 1.9668C3.14648 2.20117 3.20052 2.38932 3.30859 2.53125C3.41797 2.67318 3.5638 2.74414 3.74609 2.74414C3.92969 2.74414 4.07552 2.67253 4.18359 2.5293C4.29167 2.38477 4.3457 2.18294 4.3457 1.92383C4.3457 1.69206 4.29036 1.50456 4.17969 1.36133C4.07031 1.2168 3.92448 1.14453 3.74219 1.14453C3.5638 1.14453 3.41992 1.21549 3.31055 1.35742C3.20117 1.49935 3.14648 1.70247 3.14648 1.9668ZM6.94531 1.9668C6.94531 2.28841 6.87174 2.54753 6.72461 2.74414C6.57747 2.94076 6.37826 3.03906 6.12695 3.03906C5.87044 3.03906 5.66862 2.95768 5.52148 2.79492V3.8125H5.16016V0.886719H5.49023L5.50781 1.12109C5.65495 0.938802 5.85938 0.847656 6.12109 0.847656C6.375 0.847656 6.57552 0.943359 6.72266 1.13477C6.87109 1.32617 6.94531 1.59245 6.94531 1.93359V1.9668ZM6.58398 1.92578C6.58398 1.6875 6.5332 1.49935 6.43164 1.36133C6.33008 1.22331 6.19076 1.1543 6.01367 1.1543C5.79492 1.1543 5.63086 1.2513 5.52148 1.44531V2.45508C5.62956 2.64779 5.79492 2.74414 6.01758 2.74414C6.19076 2.74414 6.32812 2.67578 6.42969 2.53906C6.53255 2.40104 6.58398 2.19661 6.58398 1.92578ZM8.07422 2.4707L8.56641 0.886719H8.95312L8.10352 3.32617C7.97201 3.67773 7.76302 3.85352 7.47656 3.85352L7.4082 3.84766L7.27344 3.82227V3.5293L7.37109 3.53711C7.49349 3.53711 7.58854 3.51237 7.65625 3.46289C7.72526 3.41341 7.7819 3.32292 7.82617 3.19141L7.90625 2.97656L7.15234 0.886719H7.54688L8.07422 2.4707ZM10.2988 1.21094C10.2441 1.20182 10.1849 1.19727 10.1211 1.19727C9.88411 1.19727 9.72331 1.29818 9.63867 1.5V3H9.27734V0.886719H9.62891L9.63477 1.13086C9.75326 0.942057 9.92122 0.847656 10.1387 0.847656C10.209 0.847656 10.2624 0.856771 10.2988 0.875V1.21094ZM11.0254 3H10.6641V0.886719H11.0254V3ZM10.6348 0.326172C10.6348 0.267578 10.6523 0.218099 10.6875 0.177734C10.724 0.13737 10.7773 0.117188 10.8477 0.117188C10.918 0.117188 10.9714 0.13737 11.0078 0.177734C11.0443 0.218099 11.0625 0.267578 11.0625 0.326172C11.0625 0.384766 11.0443 0.433594 11.0078 0.472656C10.9714 0.511719 10.918 0.53125 10.8477 0.53125C10.7773 0.53125 10.724 0.511719 10.6875 0.472656C10.6523 0.433594 10.6348 0.384766 10.6348 0.326172ZM11.5195 1.92578C11.5195 1.59635 11.5957 1.33464 11.748 1.14062C11.9004 0.945312 12.1022 0.847656 12.3535 0.847656C12.6113 0.847656 12.8125 0.938802 12.957 1.12109L12.9746 0.886719H13.3047V2.94922C13.3047 3.22266 13.2233 3.43815 13.0605 3.5957C12.8991 3.75326 12.6816 3.83203 12.4082 3.83203C12.2559 3.83203 12.1068 3.79948 11.9609 3.73438C11.8151 3.66927 11.7038 3.58008 11.627 3.4668L11.8145 3.25C11.9694 3.44141 12.1589 3.53711 12.3828 3.53711C12.5586 3.53711 12.6953 3.48763 12.793 3.38867C12.8919 3.28971 12.9414 3.15039 12.9414 2.9707V2.78906C12.7969 2.95573 12.5996 3.03906 12.3496 3.03906C12.1022 3.03906 11.9017 2.93945 11.748 2.74023C11.5957 2.54102 11.5195 2.26953 11.5195 1.92578ZM11.8828 1.9668C11.8828 2.20508 11.9316 2.39258 12.0293 2.5293C12.127 2.66471 12.2637 2.73242 12.4395 2.73242C12.6673 2.73242 12.8346 2.62891 12.9414 2.42188V1.45703C12.8307 1.25521 12.6647 1.1543 12.4434 1.1543C12.2676 1.1543 12.1302 1.22266 12.0312 1.35938C11.9323 1.49609 11.8828 1.69857 11.8828 1.9668ZM14.2129 1.14258C14.373 0.945964 14.5814 0.847656 14.8379 0.847656C15.2845 0.847656 15.5098 1.09961 15.5137 1.60352V3H15.1523V1.60156C15.151 1.44922 15.1159 1.33659 15.0469 1.26367C14.9792 1.19076 14.873 1.1543 14.7285 1.1543C14.6113 1.1543 14.5085 1.18555 14.4199 1.24805C14.3314 1.31055 14.2624 1.39258 14.2129 1.49414V3H13.8516V0H14.2129V1.14258ZM16.5449 0.375V0.886719H16.9395V1.16602H16.5449V2.47656C16.5449 2.5612 16.5625 2.625 16.5977 2.66797C16.6328 2.70964 16.6927 2.73047 16.7773 2.73047C16.819 2.73047 16.8763 2.72266 16.9492 2.70703V3C16.8542 3.02604 16.7617 3.03906 16.6719 3.03906C16.5104 3.03906 16.3887 2.99023 16.3066 2.89258C16.2246 2.79492 16.1836 2.65625 16.1836 2.47656V1.16602H15.7988V0.886719H16.1836V0.375H16.5449ZM20.2676 1.83398C20.2676 2.0332 20.2109 2.18555 20.0977 2.29102C19.9857 2.39518 19.8268 2.44727 19.6211 2.44727C19.4167 2.44727 19.2526 2.37891 19.1289 2.24219C19.0065 2.10417 18.9453 1.91667 18.9453 1.67969V1.46484C18.9453 1.23568 19.0072 1.05273 19.1309 0.916016C19.2559 0.777995 19.4193 0.708984 19.6211 0.708984C19.8294 0.708984 19.9896 0.76237 20.1016 0.869141C20.2135 0.975911 20.2695 1.1263 20.2695 1.32031H19.9844C19.9844 1.19141 19.9531 1.09961 19.8906 1.04492C19.8294 0.988932 19.7396 0.960938 19.6211 0.960938C19.4987 0.960938 19.4023 1.00586 19.332 1.0957C19.2617 1.18555 19.2266 1.31055 19.2266 1.4707V1.69141C19.2266 1.84766 19.2617 1.9707 19.332 2.06055C19.4023 2.15039 19.4987 2.19531 19.6211 2.19531C19.7409 2.19531 19.8307 2.16797 19.8906 2.11328C19.9518 2.05859 19.9824 1.96549 19.9824 1.83398H20.2676ZM18.4844 1.57617C18.4844 1.80013 18.5365 2.00781 18.6406 2.19922C18.7448 2.38932 18.8861 2.53841 19.0645 2.64648C19.2441 2.75456 19.4382 2.80859 19.6465 2.80859C19.8548 2.80859 20.0482 2.75456 20.2266 2.64648C20.4049 2.53841 20.5462 2.38932 20.6504 2.19922C20.7546 2.00781 20.8066 1.80013 20.8066 1.57617C20.8066 1.35482 20.7552 1.14974 20.6523 0.960938C20.5495 0.772135 20.4082 0.623698 20.2285 0.515625C20.0501 0.40625 19.8561 0.351562 19.6465 0.351562C19.4382 0.351562 19.2441 0.405599 19.0645 0.513672C18.8848 0.620443 18.7428 0.76888 18.6387 0.958984C18.5358 1.14909 18.4844 1.35482 18.4844 1.57617ZM18.2598 1.57617C18.2598 1.31315 18.3203 1.06901 18.4414 0.84375C18.5638 0.61849 18.7324 0.441406 18.9473 0.3125C19.1634 0.182292 19.3965 0.117188 19.6465 0.117188C19.8965 0.117188 20.1289 0.182292 20.3438 0.3125C20.5586 0.441406 20.7266 0.61849 20.8477 0.84375C20.9701 1.06901 21.0312 1.31315 21.0312 1.57617C21.0312 1.83268 20.9727 2.07292 20.8555 2.29688C20.7383 2.52083 20.5716 2.70117 20.3555 2.83789C20.1406 2.97331 19.9043 3.04102 19.6465 3.04102C19.39 3.04102 19.1536 2.97396 18.9375 2.83984C18.7227 2.70443 18.556 2.52474 18.4375 2.30078C18.319 2.07682 18.2598 1.83529 18.2598 1.57617ZM24.1191 2.25781H22.9277L22.6602 3H22.2734L23.3594 0.15625H23.6875L24.7754 3H24.3906L24.1191 2.25781ZM23.041 1.94922H24.0078L23.5234 0.619141L23.041 1.94922ZM25.4941 3H25.1328V0H25.4941V3ZM26.4668 3H26.1055V0H26.4668V3ZM29.1387 1.84961H28.4707V3H28.0938V0.15625H29.0352C29.3555 0.15625 29.6016 0.229167 29.7734 0.375C29.9466 0.520833 30.0332 0.733073 30.0332 1.01172C30.0332 1.1888 29.985 1.3431 29.8887 1.47461C29.7936 1.60612 29.6608 1.70443 29.4902 1.76953L30.1582 2.97656V3H29.7559L29.1387 1.84961ZM28.4707 1.54297H29.0469C29.2331 1.54297 29.3809 1.49479 29.4902 1.39844C29.6009 1.30208 29.6562 1.17318 29.6562 1.01172C29.6562 0.835938 29.6035 0.701172 29.498 0.607422C29.3939 0.513672 29.2428 0.466146 29.0449 0.464844H28.4707V1.54297ZM30.8965 3H30.5352V0.886719H30.8965V3ZM30.5059 0.326172C30.5059 0.267578 30.5234 0.218099 30.5586 0.177734C30.5951 0.13737 30.6484 0.117188 30.7188 0.117188C30.7891 0.117188 30.8424 0.13737 30.8789 0.177734C30.9154 0.218099 30.9336 0.267578 30.9336 0.326172C30.9336 0.384766 30.9154 0.433594 30.8789 0.472656C30.8424 0.511719 30.7891 0.53125 30.7188 0.53125C30.6484 0.53125 30.5951 0.511719 30.5586 0.472656C30.5234 0.433594 30.5059 0.384766 30.5059 0.326172ZM31.3906 1.92578C31.3906 1.59635 31.4668 1.33464 31.6191 1.14062C31.7715 0.945312 31.9733 0.847656 32.2246 0.847656C32.4824 0.847656 32.6836 0.938802 32.8281 1.12109L32.8457 0.886719H33.1758V2.94922C33.1758 3.22266 33.0944 3.43815 32.9316 3.5957C32.7702 3.75326 32.5527 3.83203 32.2793 3.83203C32.127 3.83203 31.9779 3.79948 31.832 3.73438C31.6862 3.66927 31.5749 3.58008 31.498 3.4668L31.6855 3.25C31.8405 3.44141 32.0299 3.53711 32.2539 3.53711C32.4297 3.53711 32.5664 3.48763 32.6641 3.38867C32.763 3.28971 32.8125 3.15039 32.8125 2.9707V2.78906C32.668 2.95573 32.4707 3.03906 32.2207 3.03906C31.9733 3.03906 31.7728 2.93945 31.6191 2.74023C31.4668 2.54102 31.3906 2.26953 31.3906 1.92578ZM31.7539 1.9668C31.7539 2.20508 31.8027 2.39258 31.9004 2.5293C31.998 2.66471 32.1348 2.73242 32.3105 2.73242C32.5384 2.73242 32.7057 2.62891 32.8125 2.42188V1.45703C32.7018 1.25521 32.5358 1.1543 32.3145 1.1543C32.1387 1.1543 32.0013 1.22266 31.9023 1.35938C31.8034 1.49609 31.7539 1.69857 31.7539 1.9668ZM34.084 1.14258C34.2441 0.945964 34.4525 0.847656 34.709 0.847656C35.1556 0.847656 35.3809 1.09961 35.3848 1.60352V3H35.0234V1.60156C35.0221 1.44922 34.987 1.33659 34.918 1.26367C34.8503 1.19076 34.7441 1.1543 34.5996 1.1543C34.4824 1.1543 34.3796 1.18555 34.291 1.24805C34.2025 1.31055 34.1335 1.39258 34.084 1.49414V3H33.7227V0H34.084V1.14258ZM36.416 0.375V0.886719H36.8105V1.16602H36.416V2.47656C36.416 2.5612 36.4336 2.625 36.4688 2.66797C36.5039 2.70964 36.5638 2.73047 36.6484 2.73047C36.6901 2.73047 36.7474 2.72266 36.8203 2.70703V3C36.7253 3.02604 36.6328 3.03906 36.543 3.03906C36.3815 3.03906 36.2598 2.99023 36.1777 2.89258C36.0957 2.79492 36.0547 2.65625 36.0547 2.47656V1.16602H35.6699V0.886719H36.0547V0.375H36.416ZM38.4648 2.43945C38.4648 2.3418 38.4277 2.26628 38.3535 2.21289C38.2806 2.1582 38.1523 2.11133 37.9688 2.07227C37.7865 2.0332 37.6413 1.98633 37.5332 1.93164C37.4264 1.87695 37.347 1.81185 37.2949 1.73633C37.2441 1.66081 37.2188 1.57096 37.2188 1.4668C37.2188 1.29362 37.2917 1.14714 37.4375 1.02734C37.5846 0.907552 37.7721 0.847656 38 0.847656C38.2396 0.847656 38.4336 0.909505 38.582 1.0332C38.7318 1.1569 38.8066 1.3151 38.8066 1.50781H38.4434C38.4434 1.40885 38.401 1.32357 38.3164 1.25195C38.2331 1.18034 38.1276 1.14453 38 1.14453C37.8685 1.14453 37.7656 1.17318 37.6914 1.23047C37.6172 1.28776 37.5801 1.36263 37.5801 1.45508C37.5801 1.54232 37.6146 1.60807 37.6836 1.65234C37.7526 1.69661 37.877 1.73893 38.0566 1.7793C38.2376 1.81966 38.3841 1.86784 38.4961 1.92383C38.6081 1.97982 38.6908 2.04753 38.7441 2.12695C38.7988 2.20508 38.8262 2.30078 38.8262 2.41406C38.8262 2.60286 38.7507 2.75456 38.5996 2.86914C38.4486 2.98242 38.2526 3.03906 38.0117 3.03906C37.8424 3.03906 37.6927 3.00911 37.5625 2.94922C37.4323 2.88932 37.3301 2.80599 37.2559 2.69922C37.1829 2.59115 37.1465 2.47461 37.1465 2.34961H37.5078C37.5143 2.4707 37.5625 2.56706 37.6523 2.63867C37.7435 2.70898 37.8633 2.74414 38.0117 2.74414C38.1484 2.74414 38.2578 2.7168 38.3398 2.66211C38.4232 2.60612 38.4648 2.5319 38.4648 2.43945ZM41.3887 1.84961H40.7207V3H40.3438V0.15625H41.2852C41.6055 0.15625 41.8516 0.229167 42.0234 0.375C42.1966 0.520833 42.2832 0.733073 42.2832 1.01172C42.2832 1.1888 42.235 1.3431 42.1387 1.47461C42.0436 1.60612 41.9108 1.70443 41.7402 1.76953L42.4082 2.97656V3H42.0059L41.3887 1.84961ZM40.7207 1.54297H41.2969C41.4831 1.54297 41.6309 1.49479 41.7402 1.39844C41.8509 1.30208 41.9062 1.17318 41.9062 1.01172C41.9062 0.835938 41.8535 0.701172 41.748 0.607422C41.6439 0.513672 41.4928 0.466146 41.2949 0.464844H40.7207V1.54297ZM43.6309 3.03906C43.3444 3.03906 43.1113 2.94531 42.9316 2.75781C42.752 2.56901 42.6621 2.31706 42.6621 2.00195V1.93555C42.6621 1.72591 42.7018 1.53906 42.7812 1.375C42.862 1.20964 42.974 1.08073 43.1172 0.988281C43.2617 0.894531 43.418 0.847656 43.5859 0.847656C43.8607 0.847656 44.0742 0.938151 44.2266 1.11914C44.3789 1.30013 44.4551 1.55924 44.4551 1.89648V2.04688H43.0234C43.0286 2.25521 43.0892 2.42383 43.2051 2.55273C43.3223 2.68034 43.4707 2.74414 43.6504 2.74414C43.778 2.74414 43.8861 2.7181 43.9746 2.66602C44.0632 2.61393 44.1406 2.54492 44.207 2.45898L44.4277 2.63086C44.2507 2.90299 43.985 3.03906 43.6309 3.03906ZM43.5859 1.14453C43.4401 1.14453 43.3177 1.19792 43.2188 1.30469C43.1198 1.41016 43.0586 1.55859 43.0352 1.75H44.0938V1.72266C44.0833 1.53906 44.0339 1.39714 43.9453 1.29688C43.8568 1.19531 43.737 1.14453 43.5859 1.14453ZM46.1055 2.43945C46.1055 2.3418 46.0684 2.26628 45.9941 2.21289C45.9212 2.1582 45.793 2.11133 45.6094 2.07227C45.4271 2.0332 45.2819 1.98633 45.1738 1.93164C45.0671 1.87695 44.9876 1.81185 44.9355 1.73633C44.8848 1.66081 44.8594 1.57096 44.8594 1.4668C44.8594 1.29362 44.9323 1.14714 45.0781 1.02734C45.2253 0.907552 45.4128 0.847656 45.6406 0.847656C45.8802 0.847656 46.0742 0.909505 46.2227 1.0332C46.3724 1.1569 46.4473 1.3151 46.4473 1.50781H46.084C46.084 1.40885 46.0417 1.32357 45.957 1.25195C45.8737 1.18034 45.7682 1.14453 45.6406 1.14453C45.5091 1.14453 45.4062 1.17318 45.332 1.23047C45.2578 1.28776 45.2207 1.36263 45.2207 1.45508C45.2207 1.54232 45.2552 1.60807 45.3242 1.65234C45.3932 1.69661 45.5176 1.73893 45.6973 1.7793C45.8783 1.81966 46.0247 1.86784 46.1367 1.92383C46.2487 1.97982 46.3314 2.04753 46.3848 2.12695C46.4395 2.20508 46.4668 2.30078 46.4668 2.41406C46.4668 2.60286 46.3913 2.75456 46.2402 2.86914C46.0892 2.98242 45.8932 3.03906 45.6523 3.03906C45.4831 3.03906 45.3333 3.00911 45.2031 2.94922C45.0729 2.88932 44.9707 2.80599 44.8965 2.69922C44.8236 2.59115 44.7871 2.47461 44.7871 2.34961H45.1484C45.1549 2.4707 45.2031 2.56706 45.293 2.63867C45.3841 2.70898 45.5039 2.74414 45.6523 2.74414C45.7891 2.74414 45.8984 2.7168 45.9805 2.66211C46.0638 2.60612 46.1055 2.5319 46.1055 2.43945ZM47.8145 3.03906C47.528 3.03906 47.2949 2.94531 47.1152 2.75781C46.9355 2.56901 46.8457 2.31706 46.8457 2.00195V1.93555C46.8457 1.72591 46.8854 1.53906 46.9648 1.375C47.0456 1.20964 47.1576 1.08073 47.3008 0.988281C47.4453 0.894531 47.6016 0.847656 47.7695 0.847656C48.0443 0.847656 48.2578 0.938151 48.4102 1.11914C48.5625 1.30013 48.6387 1.55924 48.6387 1.89648V2.04688H47.207C47.2122 2.25521 47.2728 2.42383 47.3887 2.55273C47.5059 2.68034 47.6543 2.74414 47.834 2.74414C47.9616 2.74414 48.0697 2.7181 48.1582 2.66602C48.2467 2.61393 48.3242 2.54492 48.3906 2.45898L48.6113 2.63086C48.4342 2.90299 48.1686 3.03906 47.8145 3.03906ZM47.7695 1.14453C47.6237 1.14453 47.5013 1.19792 47.4023 1.30469C47.3034 1.41016 47.2422 1.55859 47.2188 1.75H48.2773V1.72266C48.2669 1.53906 48.2174 1.39714 48.1289 1.29688C48.0404 1.19531 47.9206 1.14453 47.7695 1.14453ZM50.0801 1.21094C50.0254 1.20182 49.9661 1.19727 49.9023 1.19727C49.6654 1.19727 49.5046 1.29818 49.4199 1.5V3H49.0586V0.886719H49.4102L49.416 1.13086C49.5345 0.942057 49.7025 0.847656 49.9199 0.847656C49.9902 0.847656 50.0436 0.856771 50.0801 0.875V1.21094ZM51.1465 2.50977L51.6699 0.886719H52.0391L51.2812 3H51.0059L50.2402 0.886719H50.6094L51.1465 2.50977ZM53.2363 3.03906C52.9499 3.03906 52.7168 2.94531 52.5371 2.75781C52.3574 2.56901 52.2676 2.31706 52.2676 2.00195V1.93555C52.2676 1.72591 52.3073 1.53906 52.3867 1.375C52.4674 1.20964 52.5794 1.08073 52.7227 0.988281C52.8672 0.894531 53.0234 0.847656 53.1914 0.847656C53.4661 0.847656 53.6797 0.938151 53.832 1.11914C53.9844 1.30013 54.0605 1.55924 54.0605 1.89648V2.04688H52.6289C52.6341 2.25521 52.6947 2.42383 52.8105 2.55273C52.9277 2.68034 53.0762 2.74414 53.2559 2.74414C53.3835 2.74414 53.4915 2.7181 53.5801 2.66602C53.6686 2.61393 53.7461 2.54492 53.8125 2.45898L54.0332 2.63086C53.8561 2.90299 53.5905 3.03906 53.2363 3.03906ZM53.1914 1.14453C53.0456 1.14453 52.9232 1.19792 52.8242 1.30469C52.7253 1.41016 52.6641 1.55859 52.6406 1.75H53.6992V1.72266C53.6888 1.53906 53.6393 1.39714 53.5508 1.29688C53.4622 1.19531 53.3424 1.14453 53.1914 1.14453ZM54.3926 1.92578C54.3926 1.60156 54.4694 1.34115 54.623 1.14453C54.7767 0.946615 54.9779 0.847656 55.2266 0.847656C55.474 0.847656 55.6699 0.932292 55.8145 1.10156V0H56.1758V3H55.8438L55.8262 2.77344C55.6816 2.95052 55.4805 3.03906 55.2227 3.03906C54.9779 3.03906 54.778 2.9388 54.623 2.73828C54.4694 2.53776 54.3926 2.27604 54.3926 1.95312V1.92578ZM54.7539 1.9668C54.7539 2.20638 54.8034 2.39388 54.9023 2.5293C55.0013 2.66471 55.138 2.73242 55.3125 2.73242C55.5417 2.73242 55.709 2.62956 55.8145 2.42383V1.45312C55.7064 1.25391 55.5404 1.1543 55.3164 1.1543C55.1393 1.1543 55.0013 1.22266 54.9023 1.35938C54.8034 1.49609 54.7539 1.69857 54.7539 1.9668Z" fill="#11144C"/>
</svg>
