<svg width="77" height="22" viewBox="0 0 77 22" fill="none" xmlns="http://www.w3.org/2000/svg">
<rect width="76.5349" height="21.2298" rx="1" fill="white"/>
<g clip-path="url(#clip0)">
<path d="M8.09067 19.6152L5.76868 17.3565V3.85648L8.09067 1.61523V19.6152Z" fill="#213263"/>
<path d="M4.58957 16.2358L2.26758 13.9771V7.23581L4.58957 4.99457V16.2358Z" fill="#213263"/>
<path d="M9.25171 16.2358L11.5918 13.9771V7.23581L9.25171 4.99457V16.2358Z" fill="#2DAFE6"/>
<path d="M32.127 10.1949C32.5986 9.79221 32.8526 9.21439 32.8526 8.46147C32.8526 6.86808 31.7823 6.09766 29.5692 6.09766H25.3061V15.0977H30.0227C32.3447 15.0977 33.6327 14.1171 33.6327 12.3311C33.6145 11.3156 33.0884 10.5626 32.127 10.1949ZM29.7324 9.70466H26.9388V7.56847H29.6236C31.0567 7.56847 31.1837 8.05875 31.1837 8.54902C31.1837 9.33696 30.712 9.70466 29.7324 9.70466ZM26.9388 11.158H29.8776C31.6916 11.158 31.9456 11.7533 31.9456 12.3486C31.9456 13.2766 31.3469 13.6443 29.8594 13.6443H26.9388V11.158Z" fill="#213263"/>
<path d="M46.5125 14.7649C46.4218 12.0159 46.1497 9.19683 45.7325 6.39527L45.6962 6.11511H44.2268L40.9615 11.7883L37.6599 6.11511H36.1905L36.1543 6.39527C35.737 9.19683 35.4831 12.0159 35.3742 14.7649L35.3561 15.1151H36.9706V14.7999C37.025 12.8564 37.1883 10.5976 37.4241 8.82912L40.4354 13.9069H41.4513L44.4627 8.82912C44.6803 10.5976 44.8617 12.8564 44.9162 14.7999V15.1151H46.5307L46.5125 14.7649Z" fill="#213263"/>
<path d="M20.898 9.96738L19.3923 9.65221C18.2313 9.42458 17.8504 9.14442 17.8504 8.54909C17.8504 7.90123 18.6304 7.53353 19.9184 7.53353C20.644 7.53353 21.4966 7.70863 22.2585 8.0238L23.3288 7.04326L23.1293 6.9382C22.186 6.41291 21.1157 6.13275 19.9728 6.13275C17.7415 6.13275 16.2903 7.09579 16.2903 8.58411C16.2903 9.89734 17.1792 10.7028 19.0114 11.053L20.5715 11.3682C22.0227 11.6483 22.0227 12.2261 22.0227 12.4538C22.0227 13.2242 21.2064 13.6794 19.8277 13.6794C18.9025 13.6794 17.796 13.3818 16.9615 12.9265L15.9093 13.8896L16.0726 13.9946C17.0703 14.6775 18.5034 15.0802 19.9003 15.0802C22.2041 15.0802 23.5828 14.0647 23.5828 12.3837C23.5828 11.088 22.7483 10.3351 20.898 9.96738Z" fill="#213263"/>
<path d="M61.5873 12.9266V9.61721H61.0431L60.9705 10.0024C60.1542 9.56468 59.61 9.52966 59.1202 9.52966C57.5419 9.52966 56.3447 10.7203 56.3447 12.2962C56.3447 13.9246 57.4512 15.0627 59.0476 15.0627C59.8639 15.0627 60.4626 14.8351 61.0068 14.2923L61.1701 14.9752H61.8594L61.8413 14.9052C61.805 14.9052 61.5873 13.8546 61.5873 12.9266ZM59.0295 14.3799C57.8685 14.3799 57.0703 13.5394 57.0703 12.2962C57.0703 11.0705 57.9048 10.2125 59.102 10.2125C59.5555 10.2125 60.2449 10.3001 60.8435 10.6853V13.2943C60.6621 13.9946 59.9909 14.3799 59.0295 14.3799Z" fill="#2DAFE6"/>
<path d="M65.5782 9.52966C64.9796 9.52966 64.2358 9.80982 63.7642 10.2301L63.6916 9.61721H63.1111V14.9927H63.8367V10.983C64.0907 10.6853 64.6349 10.2301 65.4875 10.2301C66.5941 10.2301 67.1202 10.7378 67.1202 11.8234V15.0102H67.8458V11.6483C67.8458 10.3176 66.9932 9.52966 65.5782 9.52966Z" fill="#2DAFE6"/>
<path d="M70.8209 11.7884L73.9774 9.63472H72.8526L72.8345 9.65223C72.5805 9.80981 70.4762 11.1756 70.0771 11.5083V7.34094H69.3515V14.9927H70.0771V11.9985C70.4944 12.5063 72.9071 14.695 73.1973 14.9752L73.2155 14.9927H74.2495L70.8209 11.7884Z" fill="#2DAFE6"/>
<path d="M55.3469 11.8067C55.1837 11.544 54.966 11.3339 54.712 11.1763C54.4581 11.0187 54.2041 10.9137 53.9501 10.8611V10.8086C54.2585 10.686 54.5125 10.4759 54.712 10.1958C54.9116 9.8981 55.0204 9.58293 55.0204 9.21522C55.0204 8.91756 54.9479 8.6374 54.7846 8.35725C54.6213 8.07709 54.3311 7.83195 53.932 7.65686C53.5329 7.46425 52.9524 7.3767 52.2086 7.35919C51.7007 7.35919 51.3016 7.3767 50.9932 7.39421C50.6848 7.41172 50.449 7.42923 50.2676 7.46425V14.8534C50.4308 14.8709 50.6848 14.8884 50.9932 14.9059C51.3197 14.9234 51.737 14.9409 52.2812 14.9409C53.1701 14.9409 53.8413 14.8358 54.3311 14.6257C54.8027 14.4156 55.1474 14.153 55.3288 13.8378C55.5102 13.5051 55.6009 13.1549 55.6009 12.7872C55.6191 12.3845 55.5284 12.0693 55.3469 11.8067ZM51.3742 8.23468C51.5374 8.19966 51.8458 8.18215 52.3356 8.18215C52.9705 8.19966 53.4059 8.32223 53.6417 8.56736C53.8776 8.8125 53.9864 9.07515 53.9683 9.39032C53.9683 9.74051 53.8231 10.0207 53.551 10.2308C53.2789 10.4409 52.9342 10.546 52.4989 10.5635H51.3742V8.23468ZM54.0771 13.6452C53.7869 13.9253 53.2789 14.0654 52.5352 14.0829C51.9909 14.0829 51.5918 14.0654 51.3742 14.0304V11.4039H52.6621C53.2426 11.4039 53.678 11.5265 54.0045 11.7716C54.3129 12.0168 54.4762 12.3144 54.4762 12.6821C54.4762 13.0499 54.3492 13.365 54.0771 13.6452Z" fill="#2DAFE6"/>
</g>
<defs>
<clipPath id="clip0">
<rect width="72" height="18" fill="white" transform="translate(2.26758 1.61523)"/>
</clipPath>
</defs>
</svg>
