<svg width="73" height="14" viewBox="0 0 73 14" fill="none" xmlns="http://www.w3.org/2000/svg">
<path d="M60.7094 7.88163L60.9394 7.94997C60.9241 8.01451 60.9011 8.06766 60.8666 8.10942C60.8321 8.15118 60.7937 8.18535 60.7439 8.20433C60.694 8.22711 60.6327 8.23849 60.556 8.23849C60.464 8.23849 60.3911 8.22711 60.3297 8.20053C60.2722 8.17396 60.2224 8.1284 60.1802 8.06006C60.138 7.99552 60.115 7.90821 60.115 7.8057C60.115 7.66903 60.1534 7.56273 60.2262 7.4868C60.2991 7.41088 60.4064 7.37671 60.5406 7.37671C60.648 7.37671 60.7285 7.39949 60.7899 7.44125C60.8512 7.48301 60.8972 7.54755 60.9241 7.63866L60.694 7.68802C60.6864 7.66144 60.6787 7.64246 60.6672 7.63107C60.6518 7.61209 60.6365 7.5969 60.6135 7.58551C60.5905 7.57412 60.5675 7.57033 60.5445 7.57033C60.487 7.57033 60.4409 7.5931 60.4103 7.64246C60.3873 7.67663 60.3758 7.73357 60.3758 7.8057C60.3758 7.89682 60.3911 7.96136 60.4179 7.99552C60.4448 8.02969 60.487 8.04867 60.5368 8.04867C60.5867 8.04867 60.625 8.03349 60.648 8.00691C60.6787 7.97275 60.6979 7.93478 60.7094 7.88163Z" fill="#225E63"/>
<path d="M61.0314 7.80474C61.0314 7.66807 61.0698 7.56177 61.1465 7.48584C61.2232 7.40991 61.3305 7.37195 61.4685 7.37195C61.6104 7.37195 61.7178 7.40991 61.7945 7.48205C61.8712 7.55797 61.9095 7.66048 61.9095 7.79715C61.9095 7.89585 61.8942 7.97558 61.8597 8.03632C61.8251 8.09706 61.7791 8.14642 61.7139 8.18058C61.6526 8.21475 61.5721 8.23373 61.4801 8.23373C61.3842 8.23373 61.3075 8.21855 61.2423 8.18818C61.181 8.15781 61.1311 8.11225 61.0889 8.04391C61.0468 7.97558 61.0314 7.90345 61.0314 7.80474ZM61.2922 7.80474C61.2922 7.88826 61.3075 7.949 61.3382 7.98697C61.3689 8.02493 61.411 8.04391 61.4685 8.04391C61.5261 8.04391 61.5682 8.02493 61.5989 7.99076C61.6296 7.9528 61.6449 7.88826 61.6449 7.79715C61.6449 7.71742 61.6296 7.66048 61.5951 7.62631C61.5644 7.58834 61.5184 7.57316 61.4647 7.57316C61.411 7.57316 61.3689 7.59214 61.3382 7.6301C61.3075 7.66048 61.2922 7.72122 61.2922 7.80474Z" fill="#225E63"/>
<path d="M62.0437 7.38733H62.385L62.5153 7.89604L62.6457 7.38733H62.987V8.22253H62.7722V7.58474L62.6074 8.22253H62.4156L62.2508 7.58474V8.22253H62.036V7.38733H62.0437Z" fill="#225E63"/>
<path d="M63.1557 7.38733H63.589C63.6848 7.38733 63.7538 7.41011 63.7998 7.45567C63.8459 7.50123 63.8689 7.56197 63.8689 7.6455C63.8689 7.72902 63.842 7.79736 63.7922 7.84292C63.7423 7.89228 63.6618 7.91506 63.5583 7.91506H63.4164V8.22638H63.1557V7.38733ZM63.4164 7.74421H63.4816C63.5314 7.74421 63.5659 7.73662 63.589 7.71763C63.6081 7.69865 63.6196 7.67967 63.6196 7.65309C63.6196 7.62652 63.612 7.60374 63.5928 7.58475C63.5736 7.56577 63.5429 7.55818 63.4931 7.55818H63.4202V7.74421H63.4164Z" fill="#225E63"/>
<path d="M64.0069 7.38733H64.2676V8.01753H64.6741V8.22253H64.0069V7.38733Z" fill="#225E63"/>
<path d="M64.8044 7.38733H65.0652V8.22253H64.8044V7.38733Z" fill="#225E63"/>
<path d="M65.7707 8.08196H65.4754L65.4333 8.21863H65.1687L65.487 7.38342H65.7707L66.0889 8.21863H65.8167L65.7707 8.08196ZM65.717 7.90353L65.625 7.60361L65.533 7.90353H65.717Z" fill="#225E63"/>
<path d="M66.1695 7.38733H66.4111L66.7293 7.85049V7.38733H66.9747V8.22253H66.7293L66.4149 7.76317V8.22253H66.1695V7.38733Z" fill="#225E63"/>
<path d="M67.0897 7.38733H67.8834V7.59233H67.6189V8.22253H67.3581V7.59233H67.0936V7.38733H67.0897Z" fill="#225E63"/>
<path d="M57.5728 8.72876L58.3282 8.49338L58.0828 7.95429C57.9026 8.17828 57.7224 8.46681 57.5728 8.72876ZM57.3159 6.2649L55.8359 3L45 3.60742L48.0023 11.7165L53.7807 9.91323C53.4126 9.38933 53.2784 8.76672 53.704 8.46301C54.1794 8.12134 54.8965 8.51616 55.3528 9.07423C55.7937 8.34532 57.0322 6.64833 57.3159 6.2649Z" fill="#225E63"/>
<path d="M55.4983 5.28961C55.9507 5.28961 56.3188 4.94793 56.3188 4.52273C56.3188 4.09754 55.9507 3.75586 55.4983 3.75586C55.0458 3.75586 54.6777 4.09754 54.6777 4.52273C54.6777 4.94413 55.0458 5.28961 55.4983 5.28961ZM54.8273 5.61989H56.1693V9.0936H54.8273V5.61989Z" fill="#FEFEFE"/>
<path d="M54.1639 6.63359C54.1754 6.63739 54.1831 6.63359 54.1831 6.6222V5.74144C54.1831 5.73005 54.1754 5.71866 54.1639 5.71107C54.1639 5.71107 53.9875 5.59718 53.4507 5.56681C53.4239 5.55162 52.9523 5.54783 52.8257 5.56681C50.8702 5.72246 50.7974 7.12332 50.7974 7.18407V7.52574C50.7974 7.5675 50.7974 8.99874 52.8257 9.12402C53.0251 9.1392 53.4124 9.12402 53.4507 9.12402C53.9185 9.12402 54.2406 8.98355 54.2406 8.98355C54.2521 8.97976 54.2598 8.96837 54.2598 8.95698V8.13316C54.2598 8.12177 54.2521 8.11798 54.2445 8.12557C54.2445 8.12557 54.0987 8.23946 53.4622 8.304C53.282 8.32298 53.1938 8.31539 53.1287 8.304C52.2237 8.15214 52.1816 7.49917 52.1816 7.49917C52.1816 7.48778 52.1777 7.4688 52.1777 7.4612V7.21064C52.1777 7.19925 52.1777 7.18027 52.1816 7.17268C52.1816 7.17268 52.2429 6.47035 53.1287 6.39442H53.4622C53.8495 6.44377 54.1639 6.63359 54.1639 6.63359Z" fill="#FEFEFE"/>
<path d="M47.0704 9.08224C47.0704 9.09363 47.078 9.10123 47.0895 9.10123H48.3971C48.4086 9.10123 48.4162 9.09363 48.4162 9.08224V8.0724C48.4162 8.06101 48.4239 8.05342 48.4354 8.05342C48.4354 8.05342 50.5251 8.20148 50.5251 6.81579C50.5251 5.71863 49.2138 5.60094 48.7843 5.61992C48.7767 5.61992 47.0895 5.61992 47.0895 5.61992C47.078 5.61992 47.0704 5.62752 47.0704 5.63891V9.08224ZM48.3932 7.28275V6.37541H48.7153C48.7153 6.37541 49.1793 6.39439 49.2176 6.70949C49.2253 6.73227 49.2253 6.88792 49.2176 6.89552C49.1563 7.26377 48.7537 7.28275 48.7537 7.28275H48.3932Z" fill="#FEFEFE"/>
<path d="M55.5368 10.7697C55.6442 10.7697 55.7285 10.7697 55.8666 10.7089C56.342 10.4622 57.9486 6.57845 59.6434 5.38258C59.6549 5.37499 59.6664 5.3636 59.6741 5.35221C59.6856 5.33702 59.6856 5.32184 59.6856 5.32184C59.6856 5.32184 59.6856 5.24211 59.4364 5.24211C57.9295 5.20035 56.3612 8.33239 55.5368 9.57002C55.5253 9.58521 55.4716 9.57002 55.4716 9.57002C55.4716 9.57002 54.9195 8.92463 54.4402 8.67786C54.4287 8.67407 54.375 8.65508 54.3175 8.65888C54.2791 8.65888 54.0568 8.70444 53.9532 8.81074C53.8305 8.93982 53.8344 9.01195 53.8344 9.1676C53.8344 9.17899 53.842 9.23214 53.8574 9.25871C53.9762 9.46372 54.5092 10.1926 54.9502 10.5951C55.0153 10.6444 55.1189 10.7697 55.5368 10.7697Z" fill="#2BBC5D"/>
<path d="M60.0882 4.20996H61.342C61.5913 4.20996 61.7906 4.24413 61.9402 4.30867C62.0936 4.377 62.2201 4.47191 62.316 4.5934C62.4156 4.71868 62.4885 4.86294 62.5307 5.02619C62.5767 5.18943 62.5997 5.36406 62.5997 5.55009C62.5997 5.83861 62.5652 6.0626 62.5 6.22205C62.4348 6.3815 62.3428 6.51437 62.2239 6.62447C62.1051 6.73077 61.9785 6.8029 61.8443 6.84086C61.6603 6.89021 61.4916 6.91299 61.342 6.91299H60.0882V4.20996ZM60.9318 4.82118V6.29798H61.1388C61.3152 6.29798 61.4417 6.279 61.5146 6.24103C61.5874 6.20307 61.6488 6.13473 61.691 6.03982C61.7331 5.94491 61.7561 5.78546 61.7561 5.56907C61.7561 5.28054 61.7101 5.08693 61.6143 4.98063C61.5184 4.87433 61.365 4.82118 61.1426 4.82118H60.9318Z" fill="#225E63"/>
<path d="M62.8336 6.0204L63.6388 5.97105C63.658 6.10013 63.6925 6.19883 63.7462 6.26717C63.8344 6.37727 63.9571 6.43042 64.1181 6.43042C64.237 6.43042 64.3328 6.40384 64.398 6.34689C64.4632 6.28995 64.4977 6.22541 64.4977 6.15328C64.4977 6.08494 64.467 6.0204 64.4057 5.96346C64.3443 5.90651 64.1986 5.85716 63.9724 5.8078C63.6005 5.72428 63.3397 5.61418 63.1787 5.47751C63.0176 5.34084 62.941 5.16621 62.941 4.95361C62.941 4.81314 62.9831 4.68406 63.0636 4.55878C63.1442 4.4335 63.2669 4.33859 63.4317 4.26646C63.5966 4.19432 63.819 4.16016 64.1028 4.16016C64.4517 4.16016 64.7201 4.2247 64.9003 4.35377C65.0844 4.48285 65.1917 4.68786 65.2262 4.96879L64.4287 5.01435C64.4057 4.89287 64.3635 4.80555 64.2945 4.7486C64.2255 4.69166 64.1334 4.66508 64.0146 4.66508C63.9149 4.66508 63.842 4.68406 63.7922 4.72582C63.7423 4.76758 63.7193 4.81694 63.7193 4.87768C63.7193 4.91944 63.7385 4.9612 63.7807 4.99537C63.819 5.02954 63.9149 5.0637 64.0644 5.09408C64.4325 5.1738 64.6971 5.25353 64.8581 5.33325C65.0192 5.41298 65.1342 5.51548 65.2071 5.63317C65.2799 5.75086 65.3144 5.88753 65.3144 6.03559C65.3144 6.21022 65.2646 6.36967 65.1687 6.51394C65.0729 6.662 64.9348 6.77209 64.7623 6.84802C64.5897 6.92395 64.3673 6.96191 64.1028 6.96191C63.6388 6.96191 63.3167 6.8746 63.1365 6.69616C62.9601 6.51773 62.8604 6.29374 62.8336 6.0204Z" fill="#225E63"/>
<path d="M65.5291 6.0204L66.3344 5.97105C66.3535 6.10013 66.388 6.19883 66.4417 6.26717C66.5299 6.37727 66.6526 6.43042 66.8137 6.43042C66.9325 6.43042 67.0284 6.40384 67.0936 6.34689C67.1587 6.28995 67.1933 6.22541 67.1933 6.15328C67.1933 6.08494 67.1626 6.0204 67.1012 5.96346C67.0399 5.90651 66.8942 5.85716 66.6679 5.8078C66.296 5.72428 66.0353 5.61418 65.8742 5.47751C65.717 5.34084 65.6365 5.16621 65.6365 4.95361C65.6365 4.81314 65.6787 4.68406 65.7592 4.55878C65.8397 4.4335 65.9624 4.33859 66.1273 4.26646C66.2922 4.19432 66.5146 4.16016 66.7983 4.16016C67.1472 4.16016 67.4156 4.2247 67.5959 4.35377C67.7799 4.48285 67.8873 4.68786 67.9218 4.96879L67.1242 5.01435C67.1012 4.89287 67.0591 4.80555 66.99 4.7486C66.921 4.69166 66.829 4.66508 66.7101 4.66508C66.6104 4.66508 66.5376 4.68406 66.4877 4.72582C66.4379 4.76758 66.4149 4.81694 66.4149 4.87768C66.4149 4.91944 66.4341 4.9612 66.4762 4.99537C66.5146 5.02954 66.6104 5.0637 66.76 5.09408C67.1281 5.1738 67.3926 5.25353 67.5537 5.33325C67.7147 5.41298 67.8298 5.51548 67.9026 5.63317C67.9755 5.75086 68.01 5.88753 68.01 6.03559C68.01 6.21022 67.9601 6.36967 67.8643 6.51394C67.7684 6.662 67.6304 6.77209 67.4578 6.84802C67.2853 6.92395 67.0629 6.96191 66.7983 6.96191C66.3344 6.96191 66.0123 6.8746 65.8321 6.69616C65.6518 6.51773 65.5522 6.29374 65.5291 6.0204Z" fill="#225E63"/>
<g clip-path="url(#clip0)">
<path d="M18.4915 12C18.3439 11.9265 18.1823 11.9265 18.0291 11.8854C17.6643 11.7856 17.6643 11.7914 17.7311 11.3979C17.7618 11.2158 17.7924 11.0337 17.8147 10.8487C17.8258 10.743 17.8537 10.7224 17.9484 10.7724C18.3104 10.9632 18.6948 11.0543 19.1014 11.0337C19.2713 11.0249 19.4329 10.9897 19.5693 10.8781C19.7559 10.7254 19.7671 10.511 19.6 10.3377C19.4691 10.2026 19.3047 10.1204 19.1432 10.0352C18.9649 9.94122 18.7923 9.83843 18.6307 9.71215C17.8899 9.13946 18.0988 8.26134 18.5137 7.82668C18.8145 7.5095 19.1905 7.35385 19.6 7.2863C20.0512 7.21288 20.494 7.25106 20.9313 7.39203C21.0371 7.42727 21.0705 7.47133 21.0482 7.58586C20.9981 7.8678 20.9563 8.15268 20.909 8.4493C20.5943 8.28777 20.2712 8.20848 19.9258 8.22022C19.7866 8.2261 19.6473 8.24959 19.5248 8.31714C19.2769 8.45224 19.2546 8.69306 19.4718 8.87808C19.625 9.0073 19.8005 9.09247 19.9732 9.18645C20.2016 9.30686 20.4188 9.44783 20.5998 9.63873C21.0956 10.1644 20.9285 11.0543 20.4634 11.486C20.157 11.7709 19.7921 11.9089 19.3966 11.9706C19.3716 11.9735 19.3382 11.9618 19.327 12C19.0485 12 18.77 12 18.4915 12Z" fill="#025FAC"/>
<path d="M5.99996 2.36122C5.99439 2.31129 6.02782 2.2643 6.07795 2.26136C6.27291 2.24962 6.45952 2.19969 6.64891 2.16151C6.76867 2.13802 6.79931 2.17032 6.8188 2.28192C6.98591 3.20997 7.15859 4.13802 7.32849 5.069C7.33406 5.1013 7.33406 5.13655 7.36191 5.16592C7.40647 5.13361 7.41761 5.08075 7.43711 5.03376C7.87159 4.12333 8.30608 3.21584 8.73499 2.30248C8.77677 2.21144 8.82412 2.17326 8.92439 2.17619C9.09428 2.18501 9.26696 2.18207 9.43964 2.17619C9.53991 2.17326 9.57054 2.18207 9.51205 2.29661C9.21683 2.88398 8.92717 3.47135 8.63473 4.05578C8.29215 4.74007 7.94679 5.42436 7.607 6.11158C7.56523 6.19382 7.52345 6.23493 7.42875 6.22906C7.26164 6.22025 7.09453 6.22318 6.92742 6.22906C6.85222 6.23199 6.81602 6.21144 6.79931 6.12333C6.55143 4.93684 6.29798 3.75329 6.04731 2.5668C6.03617 2.511 6.03339 2.50219 6.00832 2.40821C6.00553 2.39352 6.00275 2.37884 5.99996 2.36122Z" fill="#0360AC"/>
<path d="M23.1399 2C22.9421 3.35389 22.7444 4.70778 22.5494 6.06167C22.5355 6.1674 22.5049 6.22614 22.3879 6.21145C22.2793 6.19677 22.1651 6.20264 22.0537 6.21145C21.9701 6.21733 21.9367 6.18502 21.9451 6.09398C21.9506 6.01762 21.9451 5.94126 21.9451 5.84728C21.842 5.92952 21.7557 6.00587 21.661 6.07342C21.4187 6.24376 21.1513 6.30543 20.8672 6.2467C20.5803 6.18796 20.3909 6 20.2962 5.70925C20.0957 5.08664 20.3464 4.11747 20.8115 3.68869C21.1986 3.33333 21.6443 3.29222 22.1149 3.4185C22.2458 3.45374 22.2598 3.41263 22.2737 3.30103C22.321 2.94273 22.3795 2.58737 22.4269 2.23201C22.4408 2.13216 22.4714 2.09692 22.5689 2.08223C22.7026 2.06167 22.8419 2.06755 22.9672 2C23.0285 2 23.0842 2 23.1399 2ZM20.9145 5.06902C20.9201 5.11013 20.9201 5.16006 20.9285 5.20705C20.9897 5.58884 21.2376 5.73275 21.5774 5.58003C21.7083 5.52129 21.8141 5.43319 21.9172 5.3304C21.9701 5.27753 21.998 5.22173 22.0091 5.14244C22.0537 4.8047 22.1094 4.4699 22.1595 4.13216C22.1651 4.08811 22.1762 4.04699 22.1233 4.02056C21.8726 3.89721 21.4298 3.84141 21.1847 4.18209C20.9953 4.4464 20.9396 4.74596 20.9145 5.06902Z" fill="#0360AC"/>
<path d="M28 4.12927C27.7855 4.51106 27.6212 4.89579 27.4262 5.28639C27.2257 5.68286 27.0391 6.08521 26.8358 6.47875C26.6464 6.84292 26.3623 7.04263 25.9529 7.01326C25.8693 7.00739 25.8248 6.98389 25.8331 6.88404C25.8415 6.78125 25.7941 6.6579 25.8387 6.58448C25.8805 6.51106 26.003 6.58448 26.0922 6.57861C26.3261 6.55805 26.5044 6.32016 26.4542 6.08228C26.3289 5.4626 26.2063 4.84292 26.0754 4.22325C26.0559 4.12633 26.081 4.10284 26.1618 4.09696C26.2676 4.08815 26.3735 4.07347 26.4793 4.05585C26.5684 4.04116 26.6074 4.06466 26.6241 4.17038C26.6826 4.58154 26.7522 4.98683 26.8191 5.39505C26.8247 5.43323 26.8358 5.46847 26.8525 5.53015C27.0475 5.09843 27.2452 4.69314 27.4151 4.27317C27.482 4.11165 27.5599 4.04703 27.7215 4.06759C27.8162 4.07934 27.8329 4.08521 27.9694 4.10284C27.9916 4.10284 28.0056 4.10871 28 4.12927Z" fill="#0561AC"/>
<path d="M24.3319 11.9354C24.1983 11.9354 24.0618 11.9266 23.9281 11.9384C23.8306 11.9472 23.8 11.9002 23.786 11.8121C23.7582 11.6594 23.722 11.5066 23.6997 11.3539C23.6858 11.2717 23.6607 11.2365 23.5772 11.2394C23.165 11.2453 22.7528 11.2423 22.3405 11.2394C22.2681 11.2394 22.2347 11.2629 22.2096 11.3363C22.1595 11.4978 22.0955 11.6564 22.0481 11.818C22.0203 11.9149 21.9729 11.9413 21.8782 11.9384C21.5691 11.9325 21.2571 11.9296 20.9452 11.9384C20.8226 11.9413 20.8171 11.9031 20.8588 11.8003C21.2905 10.7196 21.7195 9.63587 22.1512 8.55511C22.2598 8.28198 22.3684 8.00591 22.477 7.73279C22.5884 7.45378 22.7555 7.33631 23.048 7.33631C23.3181 7.33631 23.5855 7.33925 23.8557 7.33337C23.9337 7.33337 23.9643 7.35393 23.981 7.44204C24.2679 8.90753 24.5603 10.3701 24.8528 11.8326C24.8695 11.9119 24.8583 11.9384 24.7803 11.9354C24.63 11.9325 24.4823 11.9354 24.3319 11.9354ZM22.5689 10.2996C22.814 10.2996 23.0396 10.2996 23.2652 10.2996C23.488 10.2996 23.4908 10.2996 23.4463 10.0647C23.3543 9.58888 23.2596 9.11311 23.1594 8.60503C22.9561 9.18359 22.7639 9.73279 22.5689 10.2996Z" fill="#015FAC"/>
<path d="M13.6146 9.65343C13.7065 9.89425 13.7316 10.1527 13.7957 10.4405C13.8653 10.2437 13.9238 10.0822 13.9823 9.91775C14.2719 9.09543 14.5616 8.27605 14.8484 7.45079C14.8791 7.35974 14.9209 7.3245 15.0183 7.32744C15.3693 7.33331 15.723 7.33038 16.0711 7.33038C16.099 7.37149 16.0711 7.40086 16.06 7.43023C15.4974 8.88985 14.932 10.3524 14.3694 11.812C14.336 11.8972 14.2998 11.9412 14.1995 11.9383C13.8792 11.9295 13.5589 11.9324 13.2386 11.9383C13.1495 11.9412 13.1105 11.9148 13.0882 11.8179C12.7846 10.5932 12.4783 9.36856 12.1691 8.14389C12.1524 8.07928 12.1357 8.01466 12.119 7.95005C12.1552 7.94124 12.1803 7.9618 12.2081 7.97942C12.4671 8.1527 12.7039 8.3524 12.9211 8.58442C13.2136 8.89866 13.428 9.2687 13.6146 9.65343Z" fill="#025FAB"/>
<path d="M16.4026 11.9354C16.2494 11.9354 16.0962 11.9324 15.943 11.9354C15.8678 11.9383 15.8344 11.9207 15.8483 11.8296C16.0099 10.7871 16.1714 9.74154 16.333 8.69895C16.3942 8.29366 16.4583 7.89131 16.5168 7.48603C16.5335 7.37736 16.5586 7.31862 16.6867 7.3245C16.968 7.33918 17.2521 7.33331 17.5361 7.32744C17.6448 7.3245 17.6838 7.33625 17.6643 7.47428C17.4665 8.72538 17.2771 9.97649 17.0849 11.2276C17.0543 11.4302 17.0181 11.6299 16.9958 11.8355C16.9875 11.9207 16.954 11.9412 16.8816 11.9383C16.7201 11.9324 16.5613 11.9354 16.4026 11.9354Z" fill="#025FAC"/>
<path d="M19.8506 5.36862C19.8506 5.48022 19.8367 5.57126 19.8534 5.65349C19.8952 5.87963 19.7865 5.98242 19.6055 6.06465C19.2351 6.23499 18.8535 6.30548 18.4552 6.24674C17.9873 6.17919 17.6977 5.87963 17.6225 5.3833C17.5334 4.8018 17.7395 3.90019 18.3995 3.50959C18.6976 3.33337 19.0178 3.28051 19.3521 3.35687C19.7726 3.45379 20.0149 3.79152 20.0456 4.31135C20.0567 4.48169 20.0344 4.65202 20.0121 4.82236C20.001 4.91047 19.9648 4.9369 19.8785 4.9369C19.3911 4.93103 18.9064 4.93984 18.419 4.93103C18.2937 4.92809 18.2631 4.96627 18.2659 5.09549C18.2798 5.48903 18.4859 5.71223 18.8591 5.71517C19.1599 5.7181 19.43 5.61238 19.6891 5.45966C19.7364 5.43617 19.7838 5.4068 19.8506 5.36862ZM18.3522 4.49343C18.6892 4.49343 19.0039 4.49343 19.3159 4.49343C19.3493 4.49343 19.3994 4.51105 19.4022 4.45232C19.4106 4.27317 19.3966 4.09989 19.2796 3.95599C19.1738 3.82677 19.029 3.79446 18.8758 3.83558C18.5639 3.92075 18.4441 4.18506 18.3522 4.49343Z" fill="#0360AC"/>
<path d="M11.1442 5.37741C11.1442 5.49489 11.1303 5.60062 11.147 5.69753C11.1776 5.88843 11.0885 5.9736 10.9381 6.04702C10.5565 6.23204 10.1638 6.3084 9.74883 6.24672C9.25865 6.1733 8.96063 5.85318 8.91329 5.32455C8.86037 4.71368 9.0052 4.16156 9.43411 3.72103C9.77111 3.37741 10.1833 3.26581 10.6401 3.35979C11.0523 3.44496 11.3057 3.7827 11.3364 4.26435C11.3475 4.44937 11.3392 4.63439 11.3113 4.81941C11.2974 4.91633 11.2556 4.94276 11.1637 4.93982C10.6763 4.93395 10.1889 4.94276 9.70149 4.93395C9.57894 4.93101 9.55387 4.98094 9.55944 5.09548C9.58451 5.54482 9.8491 5.77095 10.2919 5.71222C10.4451 5.69166 10.5927 5.65935 10.7348 5.5918C10.8685 5.53013 10.9966 5.45377 11.1442 5.37741ZM9.65414 4.48167C9.67642 4.48755 9.68756 4.49048 9.69591 4.49048C9.96886 4.49048 10.2418 4.49048 10.5148 4.49048C10.7125 4.49048 10.7125 4.49048 10.6958 4.2849C10.6652 3.90018 10.3783 3.70928 10.0636 3.87081C9.82682 3.99709 9.72098 4.22323 9.65414 4.48167Z" fill="#0260AC"/>
<path d="M16.0823 3.9647C15.7926 3.9647 15.7898 3.9647 15.7453 4.26719C15.6561 4.86925 15.5698 5.4713 15.4862 6.0763C15.4723 6.17909 15.4389 6.21727 15.3386 6.21139C15.1966 6.20258 15.0518 6.20552 14.9069 6.21139C14.8178 6.21433 14.7983 6.19083 14.8122 6.09685C14.9125 5.42725 15.0072 4.75765 15.1075 4.08804C15.1214 3.99406 15.1186 3.96176 15.0156 3.9647C14.7343 3.96763 14.7342 3.96176 14.7816 3.65926C14.8234 3.38613 14.8234 3.37732 15.0824 3.38613C15.1882 3.38907 15.2189 3.34796 15.23 3.25104C15.2439 3.11888 15.2634 2.98966 15.2857 2.86044C15.3665 2.39348 15.6673 2.09979 16.1185 2.06161C16.2466 2.04986 16.3775 2.06161 16.5084 2.05867C16.5808 2.05574 16.6059 2.09098 16.6031 2.1644C16.6003 2.29656 16.5975 2.42872 16.6031 2.56088C16.6059 2.63724 16.5752 2.64605 16.5112 2.64311C16.0349 2.61961 15.9597 2.6901 15.9012 3.18643C15.8789 3.3832 15.8789 3.3832 16.0795 3.3832C16.3803 3.3832 16.3803 3.3832 16.3803 3.65926C16.3803 3.9647 16.3803 3.9647 16.0823 3.9647Z" fill="#0360AC"/>
<path d="M24.5436 4.26427C24.6383 4.19378 24.7358 4.12623 24.8416 4.08218C25.2733 3.9001 25.6549 4.11449 25.7384 4.59319C25.8108 5.00435 25.6799 5.75032 25.1981 6.05575C24.8806 6.25839 24.538 6.25546 24.1899 6.20847C24.0812 6.19378 23.9726 6.1556 23.864 6.13504C23.7693 6.11742 23.7359 6.07631 23.7526 5.96764C23.8919 5.04841 24.0283 4.12917 24.1592 3.207C24.1732 3.11595 24.201 3.08365 24.2874 3.07778C24.3876 3.0719 24.4879 3.04547 24.5881 3.02785C24.6689 3.01316 24.7023 3.02198 24.6856 3.1277C24.6299 3.45957 24.5826 3.79143 24.5352 4.1233C24.5324 4.16735 24.5157 4.2114 24.5436 4.26427ZM25.2287 4.93974C25.226 4.76941 25.2065 4.602 25.031 4.52565C24.8165 4.4346 24.4572 4.66368 24.421 4.90744C24.3876 5.14826 24.3542 5.38908 24.3124 5.62991C24.2957 5.72388 24.3263 5.75913 24.4071 5.77968C24.7775 5.87073 25.0561 5.70333 25.1675 5.31566C25.2065 5.19231 25.2287 5.06603 25.2287 4.93974Z" fill="#0461AC"/>
<path d="M12.4783 3.86196C12.5563 3.79735 12.6426 3.72686 12.7262 3.64757C12.9044 3.48016 13.1022 3.36856 13.3417 3.33626C13.4141 3.32451 13.428 3.34801 13.428 3.41849C13.4253 3.58002 13.4253 3.74155 13.4336 3.90307C13.4392 4.00293 13.4085 4.03817 13.3138 4.04992C13.0353 4.08809 12.7958 4.22025 12.5786 4.40234C12.4477 4.51394 12.3864 4.6461 12.3641 4.82231C12.3112 5.25403 12.2388 5.67987 12.1803 6.10865C12.1691 6.19088 12.1385 6.21144 12.0661 6.20851C11.9129 6.20263 11.7597 6.20263 11.6065 6.20851C11.5202 6.21144 11.4924 6.18501 11.5063 6.09103C11.6372 5.21585 11.7653 4.33773 11.8934 3.45961C11.9018 3.39793 11.9241 3.37444 11.9825 3.37737C12.1218 3.38031 12.2611 3.38325 12.4003 3.37737C12.4755 3.37444 12.4839 3.41262 12.4811 3.47429C12.4783 3.61526 12.4783 3.75036 12.4783 3.86196Z" fill="#0461AC"/>
<path d="M16.6755 6.20855C16.6059 6.20855 16.5363 6.20267 16.4666 6.21148C16.3552 6.22617 16.3329 6.17918 16.3497 6.07052C16.4778 5.21589 16.6059 4.35833 16.7284 3.50076C16.7424 3.39797 16.7814 3.37448 16.8705 3.38035C17.0125 3.38623 17.1574 3.38916 17.3022 3.38035C17.3969 3.37448 17.4219 3.40972 17.408 3.5037C17.3384 3.96479 17.2715 4.42881 17.2019 4.8899C17.1434 5.28344 17.0794 5.67698 17.032 6.07345C17.0181 6.19386 16.9707 6.21736 16.8733 6.20855C16.8036 6.20561 16.7396 6.20855 16.6755 6.20855Z" fill="#0561AD"/>
<path d="M13.7483 6.20845C13.4113 6.20845 13.4085 6.20845 13.4559 5.89127C13.5729 5.09245 13.6954 4.29362 13.8068 3.4948C13.8207 3.39494 13.8542 3.37732 13.9377 3.38026C14.0798 3.38613 14.2246 3.38907 14.3694 3.38026C14.4697 3.37438 14.4975 3.40963 14.4808 3.51242C14.4084 3.97938 14.3416 4.44634 14.2719 4.9133C14.2134 5.30684 14.1494 5.70037 14.0993 6.09685C14.0853 6.1967 14.0519 6.21726 13.9684 6.21139C13.8987 6.20551 13.8235 6.20845 13.7483 6.20845Z" fill="#0561AD"/>
<path d="M13.6146 9.65347C13.4252 9.26875 13.2136 8.8987 12.9211 8.5874C12.7067 8.35538 12.4699 8.15568 12.2081 7.9824C12.1803 7.96478 12.1524 7.94422 12.119 7.95304C12.0884 7.87668 12.0132 7.86199 11.9547 7.82969C11.665 7.66522 11.3586 7.53894 11.0411 7.44496C11.0077 7.43615 10.9437 7.44496 10.9492 7.38035C10.9548 7.30105 11.0216 7.3363 11.0578 7.3363C11.6232 7.33336 12.1886 7.33336 12.7568 7.3363C13.0854 7.33923 13.2331 7.46552 13.2971 7.80032C13.4057 8.36126 13.5088 8.91926 13.6118 9.4802C13.623 9.536 13.6146 9.59474 13.6146 9.65347Z" fill="#FDA202"/>
<path d="M14.3527 2.11453C14.5616 2.11453 14.698 2.2555 14.6953 2.46695C14.6925 2.7254 14.4864 2.92804 14.2329 2.9251C14.0296 2.92217 13.8876 2.78413 13.8876 2.58737C13.882 2.33186 14.0992 2.11159 14.3527 2.11453Z" fill="#0561AC"/>
<path d="M17.6141 2.464C17.6113 2.71656 17.4025 2.92802 17.1518 2.92508C16.9401 2.92214 16.8009 2.78118 16.8064 2.5756C16.812 2.32009 17.0209 2.11157 17.2688 2.11157C17.4749 2.11157 17.6169 2.25548 17.6141 2.464Z" fill="#0561AC"/>
</g>
<rect opacity="0.2" x="36" width="1" height="14" fill="#4B4D50"/>
<g style="mix-blend-mode:color">
<rect width="73" height="14" fill="#F6F8FB"/>
</g>
<defs>
<clipPath id="clip0">
<rect width="22" height="10" fill="white" transform="translate(6 2)"/>
</clipPath>
</defs>
</svg>
