<svg width="24" height="27" viewBox="0 0 24 27" fill="none" xmlns="http://www.w3.org/2000/svg">
<path d="M1 10.7727C1 8.13682 3.13682 6 5.77273 6H17.2273C19.8632 6 22 8.13682 22 10.7727V22.2273C22 24.8632 19.8632 27 17.2273 27H5.77273C3.13682 27 1 24.8632 1 22.2273V10.7727Z" fill="#D71A20"/>
<path d="M10.6522 14.1136H11.6986L13.1098 17.4314C13.1878 17.608 13.2567 17.7173 13.3163 17.7594C13.376 17.7972 13.4839 17.8161 13.6399 17.8161V18.409H11.4232V17.8161L11.5609 17.8098C11.6802 17.8098 11.7651 17.7951 11.8156 17.7657C11.8661 17.7362 11.8913 17.7005 11.8913 17.6584C11.8913 17.6206 11.8707 17.5449 11.8294 17.4314L11.6917 17.0403H10.2598L10.0877 17.4755C10.051 17.568 10.0326 17.6269 10.0326 17.6521C10.0326 17.6858 10.0441 17.7173 10.067 17.7467C10.0946 17.772 10.1382 17.7909 10.1978 17.8035C10.2346 17.8119 10.3401 17.8161 10.5145 17.8161V18.409H8.6971V17.8161C8.81184 17.8161 8.89674 17.8077 8.95182 17.7909C9.00689 17.7699 9.05049 17.7404 9.08261 17.7026C9.11933 17.6647 9.15834 17.5954 9.19964 17.4944L10.6522 14.1136ZM10.5076 16.4285H11.4439L10.9826 15.2426L10.5076 16.4285Z" fill="white"/>
<path d="M13.9203 14.1136H16.3986C16.7106 14.1136 16.9699 14.143 17.1765 14.2019C17.3876 14.2608 17.5666 14.3491 17.7134 14.4668C17.8649 14.5846 17.9796 14.7254 18.0576 14.8894C18.1402 15.0534 18.1815 15.2258 18.1815 15.4066C18.1815 15.7767 18.0255 16.0858 17.7134 16.3339C17.4059 16.5819 16.9814 16.706 16.4399 16.706H15.6413V17.5071C15.6413 17.608 15.6482 17.6732 15.662 17.7026C15.6849 17.7404 15.717 17.7699 15.7583 17.7909C15.7996 17.8077 15.8685 17.8161 15.9649 17.8161H16.2058V18.409H13.9203V17.8161H14.0786C14.2163 17.8161 14.3081 17.8077 14.354 17.7909C14.3999 17.7699 14.432 17.7404 14.4503 17.7026C14.4733 17.6605 14.4848 17.5764 14.4848 17.4503V15.0913C14.4848 14.9567 14.4756 14.8684 14.4572 14.8263C14.4389 14.7843 14.409 14.7549 14.3677 14.738C14.331 14.717 14.2576 14.7065 14.1474 14.7065H13.9203V14.1136ZM15.6413 14.8137V16.0374H16.0406C16.2838 16.0374 16.4628 16.0143 16.5775 15.968C16.6923 15.9218 16.7841 15.8503 16.8529 15.7536C16.9217 15.6568 16.9562 15.5433 16.9562 15.4129C16.9562 15.2153 16.8736 15.0597 16.7083 14.9462C16.5844 14.8579 16.4031 14.8137 16.1645 14.8137H15.6413Z" fill="white"/>
<path d="M4.8179 14.1136H7.15162V14.7065H6.97263C6.85331 14.7065 6.77758 14.7149 6.74546 14.7317C6.71333 14.7485 6.69727 14.778 6.69727 14.82C6.69727 14.8705 6.73398 14.9504 6.80741 15.0597L7.4201 15.9932L8.10851 15.0156C8.16817 14.9315 8.2003 14.8852 8.20489 14.8768C8.21407 14.8558 8.21866 14.8326 8.21866 14.8074C8.21866 14.7738 8.20489 14.7485 8.17735 14.7317C8.15441 14.7149 8.09474 14.7065 7.99837 14.7065H7.76431V14.1136H9.6299V14.7065C9.46927 14.7107 9.35454 14.7296 9.2857 14.7633C9.22144 14.7927 9.14342 14.8705 9.05164 14.9966L7.79873 16.6682V17.4314C7.79873 17.5659 7.8079 17.6542 7.82626 17.6963C7.84462 17.7341 7.87675 17.7636 7.92264 17.7846C7.96853 17.8056 8.06032 17.8161 8.198 17.8161H8.36322V18.409H6.0777V17.8161H6.20161C6.36224 17.8161 6.46321 17.8056 6.50451 17.7846C6.55041 17.7636 6.58483 17.732 6.60777 17.69C6.63531 17.6437 6.64908 17.5491 6.64908 17.4061V16.7375L5.39617 14.9966C5.29979 14.8621 5.21489 14.7759 5.14146 14.738C5.08638 14.717 4.97853 14.7065 4.8179 14.7065V14.1136Z" fill="white"/>
<path d="M0.873124 3.94061L1.32012 1.84061H1.97712C2.12512 1.84061 2.25212 1.86761 2.35812 1.92161C2.46412 1.97361 2.54512 2.04561 2.60112 2.13761C2.65912 2.22961 2.68812 2.33561 2.68812 2.45561C2.68812 2.61161 2.64712 2.75061 2.56512 2.87261C2.48312 2.99461 2.36912 3.09161 2.22312 3.16361C2.07912 3.23361 1.91212 3.26861 1.72212 3.26861H1.37712L1.23312 3.94061H0.873124ZM1.91712 2.17061H1.61112L1.44612 2.93861H1.75812C1.86612 2.93861 1.96112 2.91861 2.04312 2.87861C2.12512 2.83861 2.18912 2.78461 2.23512 2.71661C2.28112 2.64861 2.30412 2.57261 2.30412 2.48861C2.30412 2.38861 2.27212 2.31061 2.20812 2.25461C2.14412 2.19861 2.04712 2.17061 1.91712 2.17061ZM3.18158 3.13961C3.18158 2.95561 3.21158 2.78361 3.27158 2.62361C3.33358 2.46161 3.41858 2.31961 3.52658 2.19761C3.63458 2.07361 3.76158 1.97761 3.90758 1.90961C4.05358 1.83961 4.21058 1.80461 4.37858 1.80461C4.54258 1.80461 4.68558 1.83961 4.80758 1.90961C4.92958 1.97961 5.02458 2.07761 5.09258 2.20361C5.16258 2.32761 5.19758 2.47161 5.19758 2.63561C5.19758 2.82161 5.16658 2.99661 5.10458 3.16061C5.04458 3.32261 4.95958 3.46461 4.84958 3.58661C4.74158 3.70861 4.61458 3.80461 4.46858 3.87461C4.32258 3.94261 4.16558 3.97661 3.99758 3.97661C3.83558 3.97661 3.69258 3.94161 3.56858 3.87161C3.44658 3.79961 3.35158 3.70061 3.28358 3.57461C3.21558 3.44861 3.18158 3.30361 3.18158 3.13961ZM3.56258 3.10061C3.56258 3.26861 3.60558 3.40061 3.69158 3.49661C3.77958 3.59061 3.89658 3.63761 4.04258 3.63761C4.14258 3.63761 4.23858 3.61261 4.33058 3.56261C4.42258 3.51261 4.50458 3.44361 4.57658 3.35561C4.65058 3.26761 4.70858 3.16661 4.75058 3.05261C4.79258 2.93661 4.81358 2.81261 4.81358 2.68061C4.81358 2.51261 4.77058 2.38161 4.68458 2.28761C4.59858 2.19161 4.48258 2.14361 4.33658 2.14361C4.23658 2.14361 4.14058 2.16861 4.04858 2.21861C3.95658 2.26661 3.87358 2.33361 3.79958 2.41961C3.72758 2.50561 3.66958 2.60661 3.62558 2.72261C3.58358 2.83861 3.56258 2.96461 3.56258 3.10061ZM6.09024 3.95561L5.91024 1.84061H6.27624L6.36624 3.41261L7.15824 1.84061H7.47624L7.59024 3.41261L8.34924 1.84061H8.73024L7.64724 3.95561H7.31724L7.18824 2.48261L6.41724 3.95561H6.09024ZM8.92742 3.94061L9.37442 1.84061H10.7244L10.6524 2.17061H9.66542L9.54842 2.71961H10.4214L10.3524 3.03461H9.47942L9.35642 3.61061H10.3644L10.2954 3.94061H8.92742ZM11.0907 3.94061L11.5377 1.84061H12.1947C12.3347 1.84061 12.4547 1.86561 12.5547 1.91561C12.6547 1.96361 12.7317 2.03161 12.7857 2.11961C12.8417 2.20561 12.8697 2.30561 12.8697 2.41961C12.8697 2.58761 12.8157 2.73461 12.7077 2.86061C12.6017 2.98461 12.4567 3.07261 12.2727 3.12461L12.6297 3.94061H12.2397L11.9427 3.16661H11.6157L11.4507 3.94061H11.0907ZM12.1317 2.17061H11.8287L11.6817 2.85161H11.9817C12.1357 2.85161 12.2587 2.81361 12.3507 2.73761C12.4447 2.66161 12.4917 2.56661 12.4917 2.45261C12.4917 2.36461 12.4617 2.29561 12.4017 2.24561C12.3417 2.19561 12.2517 2.17061 12.1317 2.17061ZM13.336 3.94061L13.783 1.84061H15.133L15.061 2.17061H14.074L13.957 2.71961H14.83L14.761 3.03461H13.888L13.765 3.61061H14.773L14.704 3.94061H13.336ZM15.4993 3.94061L15.9463 1.84061H16.5643C16.7463 1.84061 16.9043 1.87561 17.0383 1.94561C17.1723 2.01361 17.2763 2.10861 17.3503 2.23061C17.4243 2.35061 17.4613 2.48961 17.4613 2.64761C17.4613 2.83161 17.4283 3.00261 17.3623 3.16061C17.2963 3.31661 17.2043 3.45361 17.0863 3.57161C16.9683 3.68761 16.8303 3.77861 16.6723 3.84461C16.5163 3.90861 16.3463 3.94061 16.1623 3.94061H15.4993ZM16.5193 2.17061H16.2373L15.9283 3.61061H16.2103C16.3223 3.61061 16.4303 3.58761 16.5343 3.54161C16.6383 3.49561 16.7313 3.43061 16.8133 3.34661C16.8953 3.26261 16.9593 3.16561 17.0053 3.05561C17.0533 2.94361 17.0773 2.82261 17.0773 2.69261C17.0773 2.52861 17.0273 2.40061 16.9273 2.30861C16.8293 2.21661 16.6933 2.17061 16.5193 2.17061ZM19.0026 3.94061L19.4496 1.84061H20.1486C20.3326 1.84061 20.4776 1.88361 20.5836 1.96961C20.6916 2.05561 20.7456 2.16761 20.7456 2.30561C20.7456 2.42161 20.7116 2.52861 20.6436 2.62661C20.5776 2.72261 20.4776 2.79661 20.3436 2.84861C20.4356 2.88861 20.5046 2.94461 20.5506 3.01661C20.5986 3.08661 20.6226 3.16861 20.6226 3.26261C20.6226 3.38461 20.5886 3.49761 20.5206 3.60161C20.4546 3.70361 20.3576 3.78561 20.2296 3.84761C20.1036 3.90961 19.9496 3.94061 19.7676 3.94061H19.0026ZM20.0646 2.15861H19.7406L19.6236 2.71961H19.9476C20.0796 2.71961 20.1826 2.68661 20.2566 2.62061C20.3306 2.55461 20.3676 2.47561 20.3676 2.38361C20.3676 2.31361 20.3416 2.25861 20.2896 2.21861C20.2376 2.17861 20.1626 2.15861 20.0646 2.15861ZM19.9116 3.00161H19.5636L19.4316 3.62261H19.7856C19.9396 3.62261 20.0556 3.58661 20.1336 3.51461C20.2116 3.44261 20.2506 3.35461 20.2506 3.25061C20.2506 3.17061 20.2206 3.10961 20.1606 3.06761C20.1026 3.02361 20.0196 3.00161 19.9116 3.00161ZM21.6582 3.94061L21.8382 3.09161L21.3162 1.84061H21.7032L22.0632 2.77661L22.8222 1.84061H23.2512L22.1982 3.08861L22.0182 3.94061H21.6582Z" fill="#151515"/>
</svg>
